<?xml version="1.0" encoding="UTF-8" standalone="no"?>
<!DOCTYPE svg PUBLIC "-//W3C//DTD SVG 1.1//EN" "http://www.w3.org/Graphics/SVG/1.1/DTD/svg11.dtd">
<svg xmlns="http://www.w3.org/2000/svg" version="1.1" viewBox="0.00 0.00 759.00 759.00">
<g stroke-width="2.00" fill="none" stroke-linecap="butt">
<path stroke="#93acb5" vector-effect="non-scaling-stroke" d="
  M 430.88 281.03
  Q 430.70 297.77 430.62 314.49
  Q 430.59 320.69 435.74 323.56
  C 439.84 325.85 443.41 324.86 447.17 321.97
  Q 471.36 303.37 495.46 284.65
  Q 499.82 281.25 504.61 280.45
  Q 505.55 280.29 514.39 280.28
  Q 595.70 280.23 677.02 280.30
  Q 687.37 280.31 693.39 279.00
  C 724.47 272.27 745.29 244.73 745.25 213.25
  Q 745.19 155.06 745.13 96.86
  Q 745.11 83.55 743.77 77.24
  C 737.65 48.41 710.37 24.73 680.50 24.80
  Q 555.87 25.11 431.25 24.76
  Q 415.46 24.72 409.24 25.74
  C 381.58 30.28 360.33 49.92 354.99 77.61
  Q 353.82 83.67 353.80 95.96
  Q 353.68 155.73 353.97 215.50
  Q 354.13 247.64 378.24 266.79
  Q 390.89 276.84 407.58 279.77
  C 414.40 280.97 422.75 280.39 430.32 280.47
  Q 430.88 280.47 430.88 281.03"
/>
<path stroke="#93acb5" vector-effect="non-scaling-stroke" d="
  M 69.92 179.50
  Q 82.23 183.63 95.25 190.28
  Q 147.93 217.18 191.50 255.65
  C 202.94 265.75 215.48 278.51 228.16 289.35
  Q 248.25 306.51 273.82 313.79
  A 0.71 0.71 0.0 0 0 274.68 312.88
  Q 272.29 305.97 268.46 299.31
  C 237.92 246.33 188.79 205.81 136.69 175.16
  Q 113.05 161.25 87.53 151.21
  Q 80.03 148.27 70.25 146.02
  C 51.34 141.66 34.65 150.91 35.84 172.14
  C 37.53 202.34 56.91 228.68 75.78 250.82
  C 118.84 301.34 175.79 336.52 237.78 360.62
  Q 238.30 360.82 238.02 361.30
  Q 229.24 376.88 226.38 394.56
  Q 226.29 395.13 225.71 395.21
  C 220.21 395.95 214.43 396.66 209.28 398.07
  C 163.69 410.53 128.31 439.28 103.63 479.01
  C 88.44 503.46 79.86 533.97 77.46 561.99
  Q 77.42 562.47 76.98 562.66
  C 44.88 575.83 29.95 608.22 38.44 641.56
  Q 45.79 670.43 71.33 686.67
  Q 92.97 700.42 119.24 695.59
  A 0.97 0.95 61.9 0 1 120.09 695.86
  Q 126.56 702.23 130.18 705.33
  Q 142.80 716.13 161.28 723.49
  Q 173.72 728.45 182.75 728.42
  C 229.83 728.30 276.93 728.57 324.00 728.16
  Q 357.93 727.87 386.50 728.37
  Q 407.37 728.73 419.30 714.34
  C 427.22 704.79 430.02 692.92 427.66 680.75
  C 423.88 661.31 410.19 645.41 392.89 636.38
  Q 392.40 636.12 392.73 635.68
  Q 404.37 620.07 412.13 600.44
  C 420.52 579.22 422.62 558.88 421.34 536.59
  Q 421.32 536.09 421.81 535.97
  C 462.73 526.76 484.35 486.48 478.12 446.52
  Q 476.41 435.53 472.18 422.77
  C 464.71 400.21 457.30 380.86 442.70 362.85
  C 419.70 334.48 384.04 311.73 346.92 308.47
  Q 346.14 308.40 345.99 307.63
  Q 337.26 260.83 317.41 217.22
  C 294.82 167.57 265.39 124.67 223.99 89.46
  Q 218.61 84.89 213.19 80.92
  C 200.91 71.91 183.61 60.31 170.21 74.72
  C 163.64 81.79 160.85 93.31 160.06 102.27
  Q 157.27 134.01 162.99 167.06
  Q 163.07 167.54 163.50 167.79
  C 220.13 201.47 267.79 245.20 302.77 301.24
  C 310.10 312.98 317.08 326.87 324.08 339.73
  A 1.14 1.14 0.0 0 0 325.13 340.32
  C 371.75 338.20 413.87 364.82 431.81 407.72
  Q 438.88 424.63 444.46 443.78
  C 450.67 465.09 446.30 484.66 427.93 497.89
  C 421.73 502.36 415.69 504.67 408.26 504.69
  Q 395.46 504.73 382.65 504.74
  Q 378.00 504.75 375.44 505.67
  C 361.73 510.64 361.00 528.35 374.03 534.32
  C 378.28 536.27 383.79 536.12 388.52 535.51
  A 0.81 0.81 0.0 0 1 389.43 536.27
  C 391.58 568.56 381.69 597.43 361.54 622.54
  A 3.30 3.29 -25.1 0 0 360.81 624.55
  Q 360.57 636.87 360.52 649.00
  C 360.48 657.78 368.34 660.99 375.47 664.32
  C 387.40 669.91 397.55 679.69 395.59 694.25
  A 0.61 0.60 3.8 0 1 394.99 694.77
  L 367.47 694.75
  Q 366.84 694.75 366.89 694.12
  Q 367.86 683.72 364.05 673.45
  Q 354.28 647.11 328.76 636.73
  Q 328.29 636.54 328.41 636.04
  Q 337.59 599.97 315.31 570.59
  Q 302.80 554.10 284.20 544.89
  C 271.31 538.50 255.14 554.06 263.34 567.08
  C 266.11 571.48 270.39 573.71 275.12 576.62
  C 288.42 584.82 298.71 598.58 298.91 614.76
  C 299.13 631.82 290.41 646.42 277.73 657.82
  Q 277.32 658.19 277.69 658.58
  C 280.10 661.23 282.42 662.20 286.24 662.20
  C 296.07 662.22 306.20 661.45 315.40 665.85
  C 327.52 671.65 335.46 679.95 333.94 694.39
  Q 333.88 694.94 333.33 694.94
  Q 259.08 694.92 184.82 695.06
  C 166.13 695.09 149.50 681.74 138.47 667.67
  C 106.74 627.19 102.39 571.18 118.66 523.56
  C 128.34 495.25 146.91 470.53 170.69 452.63
  C 193.72 435.30 225.36 423.29 254.84 425.50
  Q 256.51 425.63 256.47 423.96
  Q 255.47 380.49 284.19 349.50
  C 285.62 347.96 283.54 344.96 284.69 342.50
  A 0.69 0.68 -70.5 0 0 284.24 341.54
  Q 274.22 338.94 264.78 335.48
  C 225.00 320.90 187.46 302.86 152.96 278.10
  C 132.71 263.57 114.97 246.49 98.68 227.71
  C 86.88 214.12 74.46 197.27 69.41 179.99
  Q 69.20 179.26 69.92 179.50"
/>
<path stroke="#93acb5" vector-effect="non-scaling-stroke" d="
  M 385.5932 423.2747
  A 21.68 21.36 13.7 0 0 369.5889 397.3877
  A 21.68 21.36 13.7 0 0 343.4668 413.0053
  A 21.68 21.36 13.7 0 0 359.4711 438.8923
  A 21.68 21.36 13.7 0 0 385.5932 423.2747"
/>
<path stroke="#93acb5" vector-effect="non-scaling-stroke" d="
  M 461.0169 178.0095
  A 25.50 25.17 84.2 0 0 483.4811 150.0964
  A 25.50 25.17 84.2 0 0 455.8631 127.2705
  A 25.50 25.17 84.2 0 0 433.3989 155.1836
  A 25.50 25.17 84.2 0 0 461.0169 178.0095"
/>
<path stroke="#93acb5" vector-effect="non-scaling-stroke" d="
  M 552.3840 177.9902
  A 25.51 25.14 86.8 0 0 576.0608 151.1166
  A 25.51 25.14 86.8 0 0 549.5360 127.0498
  A 25.51 25.14 86.8 0 0 525.8592 153.9234
  A 25.51 25.14 86.8 0 0 552.3840 177.9902"
/>
<path stroke="#93acb5" vector-effect="non-scaling-stroke" d="
  M 668.51 152.56
  A 25.50 25.50 0.0 0 0 643.01 127.06
  A 25.50 25.50 0.0 0 0 617.51 152.56
  A 25.50 25.50 0.0 0 0 643.01 178.06
  A 25.50 25.50 0.0 0 0 668.51 152.56"
/>
<path stroke="#93acb5" vector-effect="non-scaling-stroke" d="
  M 78.03 600.68
  C 67.46 611.66 65.71 626.70 72.48 640.20
  Q 80.28 655.75 97.03 662.93
  Q 97.39 663.08 97.19 662.75
  Q 80.43 634.07 78.41 600.82
  Q 78.38 600.32 78.03 600.68"
/>
</g>
<path fill="#f8fffd" d="
  M 0.00 0.00
  L 759.00 0.00
  L 759.00 759.00
  L 0.00 759.00
  L 0.00 0.00
  Z
  M 430.88 281.03
  Q 430.70 297.77 430.62 314.49
  Q 430.59 320.69 435.74 323.56
  C 439.84 325.85 443.41 324.86 447.17 321.97
  Q 471.36 303.37 495.46 284.65
  Q 499.82 281.25 504.61 280.45
  Q 505.55 280.29 514.39 280.28
  Q 595.70 280.23 677.02 280.30
  Q 687.37 280.31 693.39 279.00
  C 724.47 272.27 745.29 244.73 745.25 213.25
  Q 745.19 155.06 745.13 96.86
  Q 745.11 83.55 743.77 77.24
  C 737.65 48.41 710.37 24.73 680.50 24.80
  Q 555.87 25.11 431.25 24.76
  Q 415.46 24.72 409.24 25.74
  C 381.58 30.28 360.33 49.92 354.99 77.61
  Q 353.82 83.67 353.80 95.96
  Q 353.68 155.73 353.97 215.50
  Q 354.13 247.64 378.24 266.79
  Q 390.89 276.84 407.58 279.77
  C 414.40 280.97 422.75 280.39 430.32 280.47
  Q 430.88 280.47 430.88 281.03
  Z
  M 69.92 179.50
  Q 82.23 183.63 95.25 190.28
  Q 147.93 217.18 191.50 255.65
  C 202.94 265.75 215.48 278.51 228.16 289.35
  Q 248.25 306.51 273.82 313.79
  A 0.71 0.71 0.0 0 0 274.68 312.88
  Q 272.29 305.97 268.46 299.31
  C 237.92 246.33 188.79 205.81 136.69 175.16
  Q 113.05 161.25 87.53 151.21
  Q 80.03 148.27 70.25 146.02
  C 51.34 141.66 34.65 150.91 35.84 172.14
  C 37.53 202.34 56.91 228.68 75.78 250.82
  C 118.84 301.34 175.79 336.52 237.78 360.62
  Q 238.30 360.82 238.02 361.30
  Q 229.24 376.88 226.38 394.56
  Q 226.29 395.13 225.71 395.21
  C 220.21 395.95 214.43 396.66 209.28 398.07
  C 163.69 410.53 128.31 439.28 103.63 479.01
  C 88.44 503.46 79.86 533.97 77.46 561.99
  Q 77.42 562.47 76.98 562.66
  C 44.88 575.83 29.95 608.22 38.44 641.56
  Q 45.79 670.43 71.33 686.67
  Q 92.97 700.42 119.24 695.59
  A 0.97 0.95 61.9 0 1 120.09 695.86
  Q 126.56 702.23 130.18 705.33
  Q 142.80 716.13 161.28 723.49
  Q 173.72 728.45 182.75 728.42
  C 229.83 728.30 276.93 728.57 324.00 728.16
  Q 357.93 727.87 386.50 728.37
  Q 407.37 728.73 419.30 714.34
  C 427.22 704.79 430.02 692.92 427.66 680.75
  C 423.88 661.31 410.19 645.41 392.89 636.38
  Q 392.40 636.12 392.73 635.68
  Q 404.37 620.07 412.13 600.44
  C 420.52 579.22 422.62 558.88 421.34 536.59
  Q 421.32 536.09 421.81 535.97
  C 462.73 526.76 484.35 486.48 478.12 446.52
  Q 476.41 435.53 472.18 422.77
  C 464.71 400.21 457.30 380.86 442.70 362.85
  C 419.70 334.48 384.04 311.73 346.92 308.47
  Q 346.14 308.40 345.99 307.63
  Q 337.26 260.83 317.41 217.22
  C 294.82 167.57 265.39 124.67 223.99 89.46
  Q 218.61 84.89 213.19 80.92
  C 200.91 71.91 183.61 60.31 170.21 74.72
  C 163.64 81.79 160.85 93.31 160.06 102.27
  Q 157.27 134.01 162.99 167.06
  Q 163.07 167.54 163.50 167.79
  C 220.13 201.47 267.79 245.20 302.77 301.24
  C 310.10 312.98 317.08 326.87 324.08 339.73
  A 1.14 1.14 0.0 0 0 325.13 340.32
  C 371.75 338.20 413.87 364.82 431.81 407.72
  Q 438.88 424.63 444.46 443.78
  C 450.67 465.09 446.30 484.66 427.93 497.89
  C 421.73 502.36 415.69 504.67 408.26 504.69
  Q 395.46 504.73 382.65 504.74
  Q 378.00 504.75 375.44 505.67
  C 361.73 510.64 361.00 528.35 374.03 534.32
  C 378.28 536.27 383.79 536.12 388.52 535.51
  A 0.81 0.81 0.0 0 1 389.43 536.27
  C 391.58 568.56 381.69 597.43 361.54 622.54
  A 3.30 3.29 -25.1 0 0 360.81 624.55
  Q 360.57 636.87 360.52 649.00
  C 360.48 657.78 368.34 660.99 375.47 664.32
  C 387.40 669.91 397.55 679.69 395.59 694.25
  A 0.61 0.60 3.8 0 1 394.99 694.77
  L 367.47 694.75
  Q 366.84 694.75 366.89 694.12
  Q 367.86 683.72 364.05 673.45
  Q 354.28 647.11 328.76 636.73
  Q 328.29 636.54 328.41 636.04
  Q 337.59 599.97 315.31 570.59
  Q 302.80 554.10 284.20 544.89
  C 271.31 538.50 255.14 554.06 263.34 567.08
  C 266.11 571.48 270.39 573.71 275.12 576.62
  C 288.42 584.82 298.71 598.58 298.91 614.76
  C 299.13 631.82 290.41 646.42 277.73 657.82
  Q 277.32 658.19 277.69 658.58
  C 280.10 661.23 282.42 662.20 286.24 662.20
  C 296.07 662.22 306.20 661.45 315.40 665.85
  C 327.52 671.65 335.46 679.95 333.94 694.39
  Q 333.88 694.94 333.33 694.94
  Q 259.08 694.92 184.82 695.06
  C 166.13 695.09 149.50 681.74 138.47 667.67
  C 106.74 627.19 102.39 571.18 118.66 523.56
  C 128.34 495.25 146.91 470.53 170.69 452.63
  C 193.72 435.30 225.36 423.29 254.84 425.50
  Q 256.51 425.63 256.47 423.96
  Q 255.47 380.49 284.19 349.50
  C 285.62 347.96 283.54 344.96 284.69 342.50
  A 0.69 0.68 -70.5 0 0 284.24 341.54
  Q 274.22 338.94 264.78 335.48
  C 225.00 320.90 187.46 302.86 152.96 278.10
  C 132.71 263.57 114.97 246.49 98.68 227.71
  C 86.88 214.12 74.46 197.27 69.41 179.99
  Q 69.20 179.26 69.92 179.50
  Z
  M 385.5932 423.2747
  A 21.68 21.36 13.7 0 0 369.5889 397.3877
  A 21.68 21.36 13.7 0 0 343.4668 413.0053
  A 21.68 21.36 13.7 0 0 359.4711 438.8923
  A 21.68 21.36 13.7 0 0 385.5932 423.2747
  Z"
/>
<path fill="#2e586d" d="
  M 430.32 280.47
  C 422.75 280.39 414.40 280.97 407.58 279.77
  Q 390.89 276.84 378.24 266.79
  Q 354.13 247.64 353.97 215.50
  Q 353.68 155.73 353.80 95.96
  Q 353.82 83.67 354.99 77.61
  C 360.33 49.92 381.58 30.28 409.24 25.74
  Q 415.46 24.72 431.25 24.76
  Q 555.87 25.11 680.50 24.80
  C 710.37 24.73 737.65 48.41 743.77 77.24
  Q 745.11 83.55 745.13 96.86
  Q 745.19 155.06 745.25 213.25
  C 745.29 244.73 724.47 272.27 693.39 279.00
  Q 687.37 280.31 677.02 280.30
  Q 595.70 280.23 514.39 280.28
  Q 505.55 280.29 504.61 280.45
  Q 499.82 281.25 495.46 284.65
  Q 471.36 303.37 447.17 321.97
  C 443.41 324.86 439.84 325.85 435.74 323.56
  Q 430.59 320.69 430.62 314.49
  Q 430.70 297.77 430.88 281.03
  Q 430.88 280.47 430.32 280.47
  Z
  M 461.0169 178.0095
  A 25.50 25.17 84.2 0 0 483.4811 150.0964
  A 25.50 25.17 84.2 0 0 455.8631 127.2705
  A 25.50 25.17 84.2 0 0 433.3989 155.1836
  A 25.50 25.17 84.2 0 0 461.0169 178.0095
  Z
  M 552.3840 177.9902
  A 25.51 25.14 86.8 0 0 576.0608 151.1166
  A 25.51 25.14 86.8 0 0 549.5360 127.0498
  A 25.51 25.14 86.8 0 0 525.8592 153.9234
  A 25.51 25.14 86.8 0 0 552.3840 177.9902
  Z
  M 668.51 152.56
  A 25.50 25.50 0.0 0 0 643.01 127.06
  A 25.50 25.50 0.0 0 0 617.51 152.56
  A 25.50 25.50 0.0 0 0 643.01 178.06
  A 25.50 25.50 0.0 0 0 668.51 152.56
  Z"
/>
<path fill="#2e586d" d="
  M 69.41 179.99
  C 74.46 197.27 86.88 214.12 98.68 227.71
  C 114.97 246.49 132.71 263.57 152.96 278.10
  C 187.46 302.86 225.00 320.90 264.78 335.48
  Q 274.22 338.94 284.24 341.54
  A 0.69 0.68 -70.5 0 1 284.69 342.50
  C 283.54 344.96 285.62 347.96 284.19 349.50
  Q 255.47 380.49 256.47 423.96
  Q 256.51 425.63 254.84 425.50
  C 225.36 423.29 193.72 435.30 170.69 452.63
  C 146.91 470.53 128.34 495.25 118.66 523.56
  C 102.39 571.18 106.74 627.19 138.47 667.67
  C 149.50 681.74 166.13 695.09 184.82 695.06
  Q 259.08 694.92 333.33 694.94
  Q 333.88 694.94 333.94 694.39
  C 335.46 679.95 327.52 671.65 315.40 665.85
  C 306.20 661.45 296.07 662.22 286.24 662.20
  C 282.42 662.20 280.10 661.23 277.69 658.58
  Q 277.32 658.19 277.73 657.82
  C 290.41 646.42 299.13 631.82 298.91 614.76
  C 298.71 598.58 288.42 584.82 275.12 576.62
  C 270.39 573.71 266.11 571.48 263.34 567.08
  C 255.14 554.06 271.31 538.50 284.20 544.89
  Q 302.80 554.10 315.31 570.59
  Q 337.59 599.97 328.41 636.04
  Q 328.29 636.54 328.76 636.73
  Q 354.28 647.11 364.05 673.45
  Q 367.86 683.72 366.89 694.12
  Q 366.84 694.75 367.47 694.75
  L 394.99 694.77
  A 0.61 0.60 3.8 0 0 395.59 694.25
  C 397.55 679.69 387.40 669.91 375.47 664.32
  C 368.34 660.99 360.48 657.78 360.52 649.00
  Q 360.57 636.87 360.81 624.55
  A 3.30 3.29 -25.1 0 1 361.54 622.54
  C 381.69 597.43 391.58 568.56 389.43 536.27
  A 0.81 0.81 0.0 0 0 388.52 535.51
  C 383.79 536.12 378.28 536.27 374.03 534.32
  C 361.00 528.35 361.73 510.64 375.44 505.67
  Q 378.00 504.75 382.65 504.74
  Q 395.46 504.73 408.26 504.69
  C 415.69 504.67 421.73 502.36 427.93 497.89
  C 446.30 484.66 450.67 465.09 444.46 443.78
  Q 438.88 424.63 431.81 407.72
  C 413.87 364.82 371.75 338.20 325.13 340.32
  A 1.14 1.14 0.0 0 1 324.08 339.73
  C 317.08 326.87 310.10 312.98 302.77 301.24
  C 267.79 245.20 220.13 201.47 163.50 167.79
  Q 163.07 167.54 162.99 167.06
  Q 157.27 134.01 160.06 102.27
  C 160.85 93.31 163.64 81.79 170.21 74.72
  C 183.61 60.31 200.91 71.91 213.19 80.92
  Q 218.61 84.89 223.99 89.46
  C 265.39 124.67 294.82 167.57 317.41 217.22
  Q 337.26 260.83 345.99 307.63
  Q 346.14 308.40 346.92 308.47
  C 384.04 311.73 419.70 334.48 442.70 362.85
  C 457.30 380.86 464.71 400.21 472.18 422.77
  Q 476.41 435.53 478.12 446.52
  C 484.35 486.48 462.73 526.76 421.81 535.97
  Q 421.32 536.09 421.34 536.59
  C 422.62 558.88 420.52 579.22 412.13 600.44
  Q 404.37 620.07 392.73 635.68
  Q 392.40 636.12 392.89 636.38
  C 410.19 645.41 423.88 661.31 427.66 680.75
  C 430.02 692.92 427.22 704.79 419.30 714.34
  Q 407.37 728.73 386.50 728.37
  Q 357.93 727.87 324.00 728.16
  C 276.93 728.57 229.83 728.30 182.75 728.42
  Q 173.72 728.45 161.28 723.49
  Q 142.80 716.13 130.18 705.33
  Q 126.56 702.23 120.09 695.86
  A 0.97 0.95 61.9 0 0 119.24 695.59
  Q 92.97 700.42 71.33 686.67
  Q 45.79 670.43 38.44 641.56
  C 29.95 608.22 44.88 575.83 76.98 562.66
  Q 77.42 562.47 77.46 561.99
  C 79.86 533.97 88.44 503.46 103.63 479.01
  C 128.31 439.28 163.69 410.53 209.28 398.07
  C 214.43 396.66 220.21 395.95 225.71 395.21
  Q 226.29 395.13 226.38 394.56
  Q 229.24 376.88 238.02 361.30
  Q 238.30 360.82 237.78 360.62
  C 175.79 336.52 118.84 301.34 75.78 250.82
  C 56.91 228.68 37.53 202.34 35.84 172.14
  C 34.65 150.91 51.34 141.66 70.25 146.02
  Q 80.03 148.27 87.53 151.21
  Q 113.05 161.25 136.69 175.16
  C 188.79 205.81 237.92 246.33 268.46 299.31
  Q 272.29 305.97 274.68 312.88
  A 0.71 0.71 0.0 0 1 273.82 313.79
  Q 248.25 306.51 228.16 289.35
  C 215.48 278.51 202.94 265.75 191.50 255.65
  Q 147.93 217.18 95.25 190.28
  Q 82.23 183.63 69.92 179.50
  Q 69.20 179.26 69.41 179.99
  Z
  M 78.03 600.68
  C 67.46 611.66 65.71 626.70 72.48 640.20
  Q 80.28 655.75 97.03 662.93
  Q 97.39 663.08 97.19 662.75
  Q 80.43 634.07 78.41 600.82
  Q 78.38 600.32 78.03 600.68
  Z"
/>
<ellipse fill="#f8fffd" cx="0.00" cy="0.00" transform="translate(458.44,152.64) rotate(84.2)" rx="25.50" ry="25.17"/>
<ellipse fill="#f8fffd" cx="0.00" cy="0.00" transform="translate(550.96,152.52) rotate(86.8)" rx="25.51" ry="25.14"/>
<circle fill="#f8fffd" cx="643.01" cy="152.56" r="25.50"/>
<ellipse fill="#2e586d" cx="0.00" cy="0.00" transform="translate(364.53,418.14) rotate(13.7)" rx="21.68" ry="21.36"/>
<path fill="#f8fffd" d="
  M 72.48 640.20
  C 65.71 626.70 67.46 611.66 78.03 600.68
  Q 78.38 600.32 78.41 600.82
  Q 80.43 634.07 97.19 662.75
  Q 97.39 663.08 97.03 662.93
  Q 80.28 655.75 72.48 640.20
  Z"
/>
</svg>
